# xmcd
#
# Track frame offsets:
#	187
#	12997
#	31742
#	44270
#	60930
#	75810
#	98412
#	113532
#	127982
#	152620
#	167772
#	182202
#	200840
#
# Disc length: 2829 seconds
#
# Revision: 1
# Processed by: cddbd v1.5.1PL0 Copyright (c) Steve Scherf et al.
# Submitted via: CDex 1.50Beta5
#
DISCID=8d0b0b0d
DTITLE=STAR CLUB,THE - 魂のないアルバム
DYEAR=1997
DGENRE=Rock
TTITLE0=ash night
TTITLE1=devil summer
TTITLE2=don’t catch me
TTITLE3=soul donor
TTITLE4=replicant
TTITLE5=emergency
TTITLE6=stalker
TTITLE7=razor blade
TTITLE8=unknown soldier,the
TTITLE9=super drug
TTITLE10=trust yourself
TTITLE11=love you something
TTITLE12=that’s the spirt
EXTD=
EXTT0=
EXTT1=
EXTT2=
EXTT3=
EXTT4=
EXTT5=
EXTT6=
EXTT7=
EXTT8=
EXTT9=
EXTT10=
EXTT11=
EXTT12=
PLAYORDER=
